<svg width="387" height="101" viewBox="0 0 387 101" fill="none" xmlns="http://www.w3.org/2000/svg">
<path d="M73.8204 24.1027C68.4705 33.4834 48.2435 76.0627 48.6833 77.0887C48.9031 77.8215 49.7825 78.188 50.7353 78.0414C52.0544 77.8948 54.1797 73.5709 64.1466 51.0721C70.6691 36.3415 76.2389 23.5897 76.532 22.637C77.4115 19.8521 75.7259 20.8048 73.8204 24.1027Z" fill="#FFD64B"/>
<path d="M40.1821 43.8167C36.2246 47.1146 33 50.1926 33 50.7056C33 51.2919 34.0993 52.4645 35.4184 53.3439C36.6643 54.2234 39.9622 56.7151 42.6738 58.9137C48.0237 63.1643 49.4161 63.604 50.5887 61.2588C51.3216 60.013 51.0284 59.4267 48.61 57.2281C47.071 55.7624 44.2861 53.6371 42.3806 52.3912C38.4232 49.8262 38.4232 49.4598 43.2601 44.8427C44.9457 43.2304 46.9977 41.0318 47.8038 39.8593C50.4421 36.195 47.5107 37.6607 40.1821 43.8167Z" fill="#524ABD"/>
<path d="M79.9032 39.786C80.8559 40.9586 83.3476 43.6701 85.3996 45.7954C88.9174 49.533 88.9907 49.7529 87.5982 50.7056C79.3169 56.6418 76.9717 58.8404 77.1183 60.5993C77.4847 63.7506 80.123 63.3841 84.3004 59.6465C86.3524 57.8144 89.5037 55.3959 91.2626 54.2234C93.3879 52.9042 94.5604 51.6583 94.5604 50.7056C94.5604 49.7529 92.2153 47.4077 87.5982 43.7434C80.123 37.8805 76.6053 36.0484 79.9032 39.786Z" fill="#524ABD"/>
<path d="M115.4 38.8C117.56 38.8 119.516 39.076 121.268 39.628C123.044 40.156 124.556 40.948 125.804 42.004C127.076 43.06 128.06 44.38 128.756 45.964C129.452 47.524 129.8 49.336 129.8 51.4C129.8 53.464 129.452 55.288 128.756 56.872C128.06 58.432 127.076 59.74 125.804 60.796C124.556 61.852 123.044 62.656 121.268 63.208C119.516 63.736 117.56 64 115.4 64H103.52V38.8H115.4ZM108.74 41.5V61.3H115.4C116.624 61.3 117.764 61.12 118.82 60.76C119.9 60.376 120.836 59.788 121.628 58.996C122.42 58.18 123.044 57.148 123.5 55.9C123.98 54.652 124.22 53.152 124.22 51.4C124.22 49.648 123.98 48.148 123.5 46.9C123.044 45.652 122.42 44.632 121.628 43.84C120.836 43.024 119.9 42.436 118.82 42.076C117.764 41.692 116.624 41.5 115.4 41.5H108.74ZM138.974 41.5V49.78H152.114V52.48H138.974V61.3H155.714V64H133.754V38.8H155.714V41.5H138.974ZM165.973 55.18H177.133L171.733 41.86H171.373L165.973 55.18ZM175.693 38.8L185.953 64H180.769L178.393 57.88H164.713L162.337 64H157.153L167.413 38.8H175.693ZM200.724 38.8C202.884 38.8 204.84 39.076 206.592 39.628C208.368 40.156 209.88 40.948 211.128 42.004C212.4 43.06 213.384 44.38 214.08 45.964C214.776 47.524 215.124 49.336 215.124 51.4C215.124 53.464 214.776 55.288 214.08 56.872C213.384 58.432 212.4 59.74 211.128 60.796C209.88 61.852 208.368 62.656 206.592 63.208C204.84 63.736 202.884 64 200.724 64H188.844V38.8H200.724ZM194.064 41.5V61.3H200.724C201.948 61.3 203.088 61.12 204.144 60.76C205.224 60.376 206.16 59.788 206.952 58.996C207.744 58.18 208.368 57.148 208.824 55.9C209.304 54.652 209.544 53.152 209.544 51.4C209.544 49.648 209.304 48.148 208.824 46.9C208.368 45.652 207.744 44.632 206.952 43.84C206.16 43.024 205.224 42.436 204.144 42.076C203.088 41.692 201.948 41.5 200.724 41.5H194.064ZM236.179 60.4H236.539L245.899 38.8H253.639V64H248.419V43.84H248.059L239.419 64H233.299L224.659 43.84H224.299V64H219.079V38.8H226.819L236.179 60.4ZM265.325 55.18H276.485L271.085 41.86H270.725L265.325 55.18ZM275.045 38.8L285.305 64H280.121L277.745 57.88H264.065L261.689 64H256.505L266.765 38.8H275.045ZM314.116 38.8V64H307.276L293.776 43.48H293.416V64H288.196V38.8H295.036L308.536 59.32H308.896V38.8H314.116ZM333.568 62.02C335.2 62.02 336.76 61.744 338.248 61.192C339.76 60.616 341.2 59.692 342.568 58.42L344.368 60.58C343 61.852 341.344 62.86 339.4 63.604C337.456 64.348 335.392 64.72 333.208 64.72C330.952 64.72 328.912 64.432 327.088 63.856C325.288 63.28 323.74 62.428 322.444 61.3C321.172 60.172 320.188 58.78 319.492 57.124C318.796 55.468 318.448 53.56 318.448 51.4C318.448 49.24 318.784 47.332 319.456 45.676C320.152 44.02 321.124 42.628 322.372 41.5C323.644 40.372 325.168 39.52 326.944 38.944C328.72 38.368 330.688 38.08 332.848 38.08C335.032 38.08 337.096 38.452 339.04 39.196C340.984 39.94 342.64 40.948 344.008 42.22L342.208 44.38C340.84 43.108 339.4 42.196 337.888 41.644C336.4 41.068 334.84 40.78 333.208 40.78C331.912 40.78 330.7 40.996 329.572 41.428C328.444 41.836 327.472 42.472 326.656 43.336C325.84 44.2 325.192 45.304 324.712 46.648C324.256 47.968 324.028 49.552 324.028 51.4C324.028 53.248 324.256 54.844 324.712 56.188C325.192 57.508 325.852 58.6 326.692 59.464C327.556 60.328 328.564 60.976 329.716 61.408C330.892 61.816 332.176 62.02 333.568 62.02ZM372.81 38.8V64H367.59V53.02H352.83V64H347.61V38.8H352.83V50.32H367.59V38.8H372.81Z" fill="#524ABD"/>
</svg>
